# xmcd
# Track frame offsets:
# 183
# 12498
# 24455
# 38385
# 49333
# 59543
# 71028
# 82528
# 94218
# 111003
# 125128
# 136493
#
# Disc length: 2054 seconds
# Revision: 0
# Processed by: cddbd v1.4PL0 Copyright (c) Steve Scherf et al.
# Submitted via: VisiTrax 2.9.6.190 - For more info visit www.synapsa.com
#
DISCID=9f08040c
DTITLE=Hayden Thompson - The Time is Now
DYEAR=1990
DGENRE=
TTITLE0=Pretty Little Love Song
TTITLE1=Whisful Thinking
TTITLE2=Fried Chiken
TTITLE3=Wrong Raoa Again
TTITLE4=At The Party Tonight
TTITLE5=I Still Miss Someone
TTITLE6=Ain´t That Loving You Baby
TTITLE7=Tell Me That´s The Way It´ll Be
TTITLE8=I Ain´t Takin` No Prisoners
TTITLE9=Stonecold Heart
TTITLE10=Careless Hands
TTITLE11=Boy From Tupelo
EXTD=
EXTT0=
EXTT1=
EXTT2=
EXTT3=
EXTT4=
EXTT5=
EXTT6=
EXTT7=
EXTT8=
EXTT9=
EXTT10=
EXTT11=
PLAYORDER=
